<?xml version="1.0" standalone="no"?>
<!DOCTYPE svg PUBLIC "-//W3C//DTD SVG 20010904//EN"
 "http://www.w3.org/TR/2001/REC-SVG-20010904/DTD/svg10.dtd">
<svg version="1.0" xmlns="http://www.w3.org/2000/svg"
 width="85.000000pt" height="40.000000pt" viewBox="0 0 85.000000 40.000000"
 preserveAspectRatio="xMidYMid meet">

<g transform="translate(0.000000,40.000000) scale(0.100000,-0.100000)"
fill="#000000" stroke="none">
<path d="M30 380 c0 -11 -7 -20 -15 -20 -8 0 -15 -7 -15 -15 0 -12 20 -15 120
-15 96 0 120 3 120 14 0 8 -7 16 -15 20 -8 3 -15 12 -15 21 0 12 -16 15 -90
15 -83 0 -90 -1 -90 -20z"/>
<path d="M545 392 c-20 -14 -38 -56 -26 -60 6 -2 11 -26 11 -58 0 -41 4 -54
15 -54 12 0 15 13 15 55 0 48 2 55 20 55 18 0 20 -7 20 -55 0 -42 3 -55 15
-55 12 0 15 13 15 55 0 30 5 55 10 55 14 0 12 27 -2 33 -10 4 -10 6 0 6 6 1
12 8 12 16 0 28 -41 15 -53 -17 -4 -12 -12 -15 -24 -11 -10 4 -12 8 -5 11 7 2
12 10 12 18 0 15 -19 18 -35 6z"/>
<path d="M320 361 c-5 -11 -10 -38 -10 -61 0 -57 14 -80 50 -80 20 0 30 5 30
15 0 8 -9 15 -20 15 -17 0 -20 7 -20 50 0 43 3 50 20 50 11 0 20 7 20 15 0 23
-57 20 -70 -4z"/>
<path d="M422 348 c-17 -17 -15 -103 2 -117 8 -7 27 -11 43 -9 26 3 28 6 31
56 2 31 -2 60 -9 68 -14 17 -51 18 -67 2z m46 -60 c-3 -47 -21 -55 -26 -12 -4
31 4 54 18 54 7 0 10 -17 8 -42z"/>
<path d="M672 348 c-19 -19 -16 -114 4 -122 29 -11 64 -7 64 9 0 9 -10 15 -26
15 -31 0 -28 23 4 28 18 3 22 10 22 37 0 42 -40 61 -68 33z m40 -33 c0 -5 -5
-11 -11 -13 -6 -2 -11 4 -11 13 0 9 5 15 11 13 6 -2 11 -8 11 -13z"/>
<path d="M772 348 c-16 -16 -16 -100 0 -116 18 -18 68 -15 68 3 0 9 -10 15
-26 15 -34 0 -26 24 9 28 22 3 27 8 27 31 0 32 -16 51 -45 51 -12 0 -26 -5
-33 -12z m48 -33 c0 -8 -7 -15 -15 -15 -8 0 -15 7 -15 15 0 8 7 15 15 15 8 0
15 -7 15 -15z"/>
<path d="M25 283 c2 -16 7 -65 10 -110 7 -101 15 -143 26 -143 5 0 18 15 29
32 25 40 23 84 -2 80 -19 -3 -25 22 -8 33 6 3 10 14 10 24 0 11 9 29 19 42
l20 24 15 -36 c21 -50 31 -93 19 -86 -5 3 -14 2 -21 -2 -16 -9 2 -72 27 -95
17 -16 19 -15 29 11 6 15 14 79 18 141 l7 112 -101 0 -101 0 4 -27z"/>
<path d="M320 95 l0 -66 28 3 c26 3 27 5 27 63 0 58 -1 60 -27 63 l-28 3 0
-66z m48 -3 c3 -47 1 -52 -17 -52 -19 0 -21 6 -21 56 0 47 3 55 18 52 13 -2
18 -15 20 -56z"/>
<path d="M503 95 c0 -38 2 -53 4 -32 2 20 2 52 0 70 -2 17 -4 1 -4 -38z"/>
<path d="M414 127 c-3 -8 -4 -32 -2 -53 2 -32 7 -39 26 -40 18 -1 19 -1 2 3
-31 7 -26 43 6 43 22 0 25 4 22 28 -2 19 -9 28 -26 30 -13 2 -24 -3 -28 -11z
m44 -20 c2 -12 -3 -17 -17 -17 -15 0 -21 6 -21 21 0 25 33 22 38 -4z"/>
<path d="M543 85 c0 -33 2 -45 4 -27 2 18 2 45 0 60 -2 15 -4 0 -4 -33z"/>
<path d="M572 125 c0 -11 4 -31 8 -45 l8 -25 0 25 c0 14 -3 34 -8 45 l-9 20 1
-20z"/>
<path d="M614 101 c-4 -23 -11 -44 -15 -47 -12 -7 -11 -24 0 -24 10 0 35 100
27 108 -3 2 -8 -14 -12 -37z"/>
<path d="M654 127 c-3 -8 -4 -32 -2 -53 3 -35 6 -39 33 -41 28 -2 28 -1 5 5
-36 11 -39 42 -5 42 23 0 26 4 23 28 -2 19 -9 28 -26 30 -13 2 -24 -3 -28 -11z
m46 -17 c0 -13 -7 -20 -20 -20 -19 0 -27 20 -13 33 13 14 33 6 33 -13z"/>
<path d="M742 81 c1 -54 2 -54 5 -11 3 24 8 50 14 56 6 7 4 11 -6 11 -12 0
-15 -13 -13 -56z"/>
<path d="M796 83 c7 -32 13 -64 14 -72 0 -28 10 -4 23 62 8 37 11 65 7 62 -4
-2 -11 -24 -15 -47 -6 -35 -8 -39 -15 -23 -5 11 -9 30 -9 42 -1 12 -5 24 -10
27 -5 4 -3 -20 5 -51z"/>
</g>
</svg>
